<svg xmlns="http://www.w3.org/2000/svg" aria-hidden="true" style="position:absolute;width:0;height:0;overflow:hidden">
  <defs>
    <!-- VLADA -->
    <symbol id="icon-footer" viewBox="0 0 32 32">
      <path d="M29.082 0.314h-4.010c-0.006-0-0.013-0-0.020-0-1.218 0-2.206 0.98-2.22 2.195v3.929c0.014 1.216 1.002 2.196 2.22 2.196 0.007 0 0.014-0 0.021-0h4.009c0.006 0 0.013 0 0.020 0 1.218 0 2.206-0.98 2.22-2.195v-3.929c-0.014-1.216-1.002-2.196-2.22-2.196-0.007 0-0.014 0-0.021 0h0.001zM6.73 23.040h-4.318c-1.332 0-2.412 0.984-2.412 2.196v3.928c0 1.214 1.080 2.196 2.412 2.196h4.32c1.33 0 2.41-0.982 2.41-2.196v-3.928c0-1.214-1.080-2.196-2.412-2.196zM6.25 11.58h-4.010c-1.238 0-2.24 0.986-2.24 2.2v3.928c0.013 1.216 1.002 2.196 2.22 2.196 0.007 0 0.014-0 0.021-0h4.009c0.006 0 0.013 0 0.020 0 1.218 0 2.206-0.98 2.22-2.195v-3.929c0-1.214-1.004-2.196-2.24-2.196zM17.766 22.98h-4.010c-1.236 0-2.24 0.98-2.24 2.194v3.928c0.014 1.216 1.002 2.196 2.22 2.196 0.007 0 0.014-0 0.021-0h4.009c0.006 0 0.013 0 0.020 0 1.218 0 2.206-0.98 2.22-2.195v-3.929c-0.014-1.216-1.002-2.196-2.22-2.196-0.007 0-0.014 0-0.021 0h0.001zM6.25 0.086h-4.010c-1.238 0-2.24 0.984-2.24 2.196v3.928c0.013 1.216 1.002 2.196 2.22 2.196 0.007 0 0.014-0 0.021-0h4.009c0.006 0 0.013 0 0.020 0 1.218 0 2.206-0.98 2.22-2.195v-3.929c0-1.212-1.004-2.196-2.24-2.196zM18.076 11.698h-4.010c-1.236 0-2.24 0.982-2.24 2.194v3.93c0.014 1.216 1.002 2.196 2.22 2.196 0.007 0 0.014-0 0.021-0h4.009c1.238 0 2.24-0.984 2.24-2.196v-3.93c0-1.212-1.002-2.194-2.24-2.194zM29.334 22.98h-4.010c-1.238 0-2.24 0.98-2.24 2.194v3.928c0.014 1.216 1.002 2.196 2.22 2.196 0.007 0 0.014-0 0.021-0h4.009c0.006 0 0.013 0 0.020 0 1.218 0 2.206-0.98 2.22-2.195v-3.929c0-1.214-1.004-2.196-2.24-2.196zM17.59 0.224h-4.008c-1.238 0-2.24 0.982-2.24 2.196v3.928c0.014 1.216 1.002 2.196 2.22 2.196 0.007 0 0.014-0 0.021-0h4.007c0.006 0 0.013 0 0.020 0 1.218 0 2.206-0.98 2.22-2.195v-3.929c0-1.214-1.002-2.196-2.24-2.196zM29.044 11.926h-4.010c-1.236 0-2.24 0.982-2.24 2.196v3.928c0.014 1.216 1.002 2.196 2.22 2.196 0.007 0 0.014-0 0.021-0h4.009c0.006 0 0.013 0 0.020 0 1.218 0 2.206-0.98 2.22-2.195v-3.929c0-1.214-1.004-2.196-2.24-2.196z"></path>
    </symbol>
    <symbol id="icon-GreenHarvest-2" viewBox="0 0 389 32">
      <path d="M16.803 32c-10.101 0-16.803-6.272-16.803-16.043 0-9.557 6.605-15.957 16.563-15.957 8.379 0 14.267 4.395 15.128 11.008h-6.944c-0.667-3.797-3.875-5.931-8.187-5.931-6.032 0-9.621 4.352-9.621 10.88 0 7.168 4.021 10.965 9.861 10.965 5.075 0 8.331-2.56 8.667-6.4v-0.427h-9.333v-4.779h15.797v3.925c-0.288 7.637-6.32 12.757-15.131 12.757zM36.115 31.573v-31.147h16.8c8.571 0 11.971 3.712 11.971 9.088 0 4.821-3.829 7.125-8.283 7.68v0.128c2.872 0.64 4.165 2.048 5.36 4.821 1.533 3.499 1.773 7.68 3.736 9.173v0.256h-7.659c-1.627-1.451-2.011-6.016-2.872-8.789-0.861-2.859-2.731-3.2-6.224-3.2h-6.128v11.989h-6.701zM42.816 14.635h9.384c3.925 0 5.744-2.048 5.744-4.693 0-2.901-2.251-4.565-5.744-4.565h-9.384v9.259zM69.336 31.573v-31.147h23.888v4.949h-17.187v7.424h15.512v4.949h-15.512v8.747h17.424v5.077h-24.125zM98.117 31.573v-31.147h23.885v4.949h-17.184v7.424h15.509v4.949h-15.509v8.747h17.424v5.077h-24.125zM126.896 31.573v-31.147h8.139l11.584 17.195c3.544 5.205 3.973 6.912 3.973 6.912h0.144l-0.096-24.107h6.701v31.147h-8.187l-12.011-17.707c-2.728-4.011-3.448-6.443-3.448-6.443h-0.096v24.149h-6.701zM162.384 31.573v-6.315h6.987v6.315h-6.987zM174.405 31.573v-31.147h6.701v12.459h16.037v-12.459h6.701v31.147h-6.699v-13.739h-16.037v13.739h-6.701zM206.712 31.573l13.403-31.147h7.277l13.595 31.147h-7.181l-2.824-7.168h-14.507l-2.821 7.168h-6.941zM218.392 19.456h10.675l-3.112-7.68c-2.155-5.675-2.203-6.699-2.203-6.699h-0.096s0 1.024-2.152 6.699l-3.112 7.68zM243.84 31.573v-31.147h16.803c8.571 0 11.968 3.712 11.968 9.088 0 4.821-3.829 7.125-8.28 7.68v0.128c2.872 0.64 4.163 2.048 5.36 4.821 1.533 3.499 1.771 7.68 3.733 9.173v0.256h-7.659c-1.627-1.451-2.011-6.016-2.872-8.789-0.861-2.859-2.728-3.2-6.224-3.2h-6.125v11.989h-6.704zM250.544 14.635h9.381c3.925 0 5.744-2.048 5.744-4.693 0-2.901-2.251-4.565-5.744-4.565h-9.381v9.259zM284.168 31.573l-12.829-31.147h7.181s6.941 17.451 7.659 19.584c1.149 3.413 1.675 5.163 1.675 5.163h0.096c-0.048 0 0.48-1.749 1.675-5.163 0.768-2.133 7.421-19.584 7.421-19.584h6.941l-12.352 31.147h-7.467zM306.731 31.573v-31.147h23.888v4.949h-17.187v7.424h15.512v4.949h-15.512v8.747h17.427v5.077h-24.128zM347.496 32c-8.904 0-14.267-4.309-14.267-10.709h7.661c-0.096 3.627 2.584 5.632 6.605 5.632 4.261 0 6.269-1.493 6.269-3.712s-1.723-3.157-7.851-4.651c-5.6-1.365-11.728-2.987-11.728-9.387 0-5.077 4.979-9.173 12.829-9.173 8.091 0 13.261 4.053 13.261 9.771h-7.421c-0.048-3.029-2.344-4.693-5.84-4.693-3.397 0-5.648 1.536-5.648 3.584 0 2.432 1.867 3.2 6.749 4.437 7.229 1.792 13.069 2.517 13.069 9.472 0 5.589-5.696 9.429-13.691 9.429zM372.099 31.573v-26.069h-10.579v-5.077h27.813v5.077h-10.531v26.069h-6.704z"></path>
    </symbol>

    <!-- new -->
    <symbol id="icon-green-harvest-mobile" viewBox="0 0 389 32">
      <path d="M16.803 32c-10.101 0-16.803-6.272-16.803-16.043 0-9.557 6.605-15.957 16.563-15.957 8.379 0 14.267 4.395 15.128 11.008h-6.944c-0.667-3.797-3.875-5.931-8.187-5.931-6.032 0-9.621 4.352-9.621 10.88 0 7.168 4.021 10.965 9.861 10.965 5.075 0 8.331-2.56 8.667-6.4v-0.427h-9.333v-4.779h15.797v3.925c-0.288 7.637-6.32 12.757-15.131 12.757zM36.115 31.573v-31.147h16.8c8.571 0 11.971 3.712 11.971 9.088 0 4.821-3.829 7.125-8.283 7.68v0.128c2.872 0.64 4.165 2.048 5.36 4.821 1.533 3.499 1.773 7.68 3.736 9.173v0.256h-7.659c-1.627-1.451-2.011-6.016-2.872-8.789-0.861-2.859-2.731-3.2-6.224-3.2h-6.128v11.989h-6.701zM42.816 14.635h9.384c3.925 0 5.744-2.048 5.744-4.693 0-2.901-2.251-4.565-5.744-4.565h-9.384v9.259zM69.336 31.573v-31.147h23.888v4.949h-17.187v7.424h15.512v4.949h-15.512v8.747h17.424v5.077h-24.125zM98.117 31.573v-31.147h23.885v4.949h-17.184v7.424h15.509v4.949h-15.509v8.747h17.424v5.077h-24.125zM126.896 31.573v-31.147h8.139l11.584 17.195c3.544 5.205 3.973 6.912 3.973 6.912h0.144l-0.096-24.107h6.701v31.147h-8.187l-12.011-17.707c-2.728-4.011-3.448-6.443-3.448-6.443h-0.096v24.149h-6.701zM162.384 31.573v-6.315h6.987v6.315h-6.987zM174.405 31.573v-31.147h6.701v12.459h16.037v-12.459h6.701v31.147h-6.699v-13.739h-16.037v13.739h-6.701zM206.712 31.573l13.403-31.147h7.277l13.595 31.147h-7.181l-2.824-7.168h-14.507l-2.821 7.168h-6.941zM218.392 19.456h10.675l-3.112-7.68c-2.155-5.675-2.203-6.699-2.203-6.699h-0.096s0 1.024-2.152 6.699l-3.112 7.68zM243.84 31.573v-31.147h16.803c8.571 0 11.968 3.712 11.968 9.088 0 4.821-3.829 7.125-8.28 7.68v0.128c2.872 0.64 4.163 2.048 5.36 4.821 1.533 3.499 1.771 7.68 3.733 9.173v0.256h-7.659c-1.627-1.451-2.011-6.016-2.872-8.789-0.861-2.859-2.728-3.2-6.224-3.2h-6.125v11.989h-6.704zM250.544 14.635h9.381c3.925 0 5.744-2.048 5.744-4.693 0-2.901-2.251-4.565-5.744-4.565h-9.381v9.259zM284.168 31.573l-12.829-31.147h7.181s6.941 17.451 7.659 19.584c1.149 3.413 1.675 5.163 1.675 5.163h0.096c-0.048 0 0.48-1.749 1.675-5.163 0.768-2.133 7.421-19.584 7.421-19.584h6.941l-12.352 31.147h-7.467zM306.731 31.573v-31.147h23.888v4.949h-17.187v7.424h15.512v4.949h-15.512v8.747h17.427v5.077h-24.128zM347.496 32c-8.904 0-14.267-4.309-14.267-10.709h7.661c-0.096 3.627 2.584 5.632 6.605 5.632 4.261 0 6.269-1.493 6.269-3.712s-1.723-3.157-7.851-4.651c-5.6-1.365-11.728-2.987-11.728-9.387 0-5.077 4.979-9.173 12.829-9.173 8.091 0 13.261 4.053 13.261 9.771h-7.421c-0.048-3.029-2.344-4.693-5.84-4.693-3.397 0-5.648 1.536-5.648 3.584 0 2.432 1.867 3.2 6.749 4.437 7.229 1.792 13.069 2.517 13.069 9.472 0 5.589-5.696 9.429-13.691 9.429zM372.099 31.573v-26.069h-10.579v-5.077h27.813v5.077h-10.531v26.069h-6.704z"></path>
    </symbol>
    <symbol id="icon-logo-mobile" viewBox="0 0 32 32">
      <path d="M29.082 0.314h-4.010c-0.006-0-0.013-0-0.020-0-1.218 0-2.206 0.98-2.22 2.195v3.929c0.014 1.216 1.002 2.196 2.22 2.196 0.007 0 0.014-0 0.021-0h4.009c0.006 0 0.013 0 0.020 0 1.218 0 2.206-0.98 2.22-2.195v-3.929c-0.014-1.216-1.002-2.196-2.22-2.196-0.007 0-0.014 0-0.021 0h0.001zM6.73 23.040h-4.318c-1.332 0-2.412 0.984-2.412 2.196v3.928c0 1.214 1.080 2.196 2.412 2.196h4.32c1.33 0 2.41-0.982 2.41-2.196v-3.928c0-1.214-1.080-2.196-2.412-2.196zM6.25 11.58h-4.010c-1.238 0-2.24 0.986-2.24 2.2v3.928c0.013 1.216 1.002 2.196 2.22 2.196 0.007 0 0.014-0 0.021-0h4.009c0.006 0 0.013 0 0.020 0 1.218 0 2.206-0.98 2.22-2.195v-3.929c0-1.214-1.004-2.196-2.24-2.196zM17.766 22.98h-4.010c-1.236 0-2.24 0.98-2.24 2.194v3.928c0.014 1.216 1.002 2.196 2.22 2.196 0.007 0 0.014-0 0.021-0h4.009c0.006 0 0.013 0 0.020 0 1.218 0 2.206-0.98 2.22-2.195v-3.929c-0.014-1.216-1.002-2.196-2.22-2.196-0.007 0-0.014 0-0.021 0h0.001zM6.25 0.086h-4.010c-1.238 0-2.24 0.984-2.24 2.196v3.928c0.013 1.216 1.002 2.196 2.22 2.196 0.007 0 0.014-0 0.021-0h4.009c0.006 0 0.013 0 0.020 0 1.218 0 2.206-0.98 2.22-2.195v-3.929c0-1.212-1.004-2.196-2.24-2.196zM18.076 11.698h-4.010c-1.236 0-2.24 0.982-2.24 2.194v3.93c0.014 1.216 1.002 2.196 2.22 2.196 0.007 0 0.014-0 0.021-0h4.009c1.238 0 2.24-0.984 2.24-2.196v-3.93c0-1.212-1.002-2.194-2.24-2.194zM29.334 22.98h-4.010c-1.238 0-2.24 0.98-2.24 2.194v3.928c0.014 1.216 1.002 2.196 2.22 2.196 0.007 0 0.014-0 0.021-0h4.009c0.006 0 0.013 0 0.020 0 1.218 0 2.206-0.98 2.22-2.195v-3.929c0-1.214-1.004-2.196-2.24-2.196zM17.59 0.224h-4.008c-1.238 0-2.24 0.982-2.24 2.196v3.928c0.014 1.216 1.002 2.196 2.22 2.196 0.007 0 0.014-0 0.021-0h4.007c0.006 0 0.013 0 0.020 0 1.218 0 2.206-0.98 2.22-2.195v-3.929c0-1.214-1.002-2.196-2.24-2.196zM29.044 11.926h-4.010c-1.236 0-2.24 0.982-2.24 2.196v3.928c0.014 1.216 1.002 2.196 2.22 2.196 0.007 0 0.014-0 0.021-0h4.009c0.006 0 0.013 0 0.020 0 1.218 0 2.206-0.98 2.22-2.195v-3.929c0-1.214-1.004-2.196-2.24-2.196z"></path>
    </symbol>

    <!-- OLEH -->
    <symbol id="icon-mob-close" viewBox="0 0 32 32">
      <path fill="#fff" style="fill: var(--color1, #fff)" d="M32 3.225l-3.225-3.225-12.775 12.775-12.775-12.775-3.225 3.225 12.775 12.775-12.775 12.775 3.225 3.225 12.775-12.775 12.775 12.775 3.225-3.225-12.775-12.775z"></path>
    <symbol>
   <symbol id="icon-mob-menu" viewBox="0 0 42 32">
      <path fill="none" stroke="#fbfbfb" style="stroke: var(--color1, #fbfbfb)" stroke-linejoin="round" stroke-linecap="round" stroke-miterlimit="4" stroke-width="4.8" d="M3.734 3.2h34.133M3.734 16h17.067M3.734 28.8h34.133"></path>
   </symbol>
    <symbol id="icon-tab-close" viewBox="0 0 32 32">
     <path fill="#fff" style="fill: var(--color1, #fff)" d="M32 3.224l-3.224-3.224-12.776 12.776-12.776-12.776-3.224 3.224 12.776 12.776-12.776 12.776 3.224 3.224 12.776-12.776 12.776 12.776 3.224-3.224-12.776-12.776z"></path>
    </symbol>
    <symbol id="icon-tab-menu" viewBox="0 0 43 32">
      <path fill="none" stroke="#fbfbfb" style="stroke: var(--color1, #fbfbfb)" stroke-linejoin="round" stroke-linecap="round" stroke-miterlimit="4" stroke-width="5.3333" d="M3.555 2.667h35.556M3.555 16h17.778M3.555 29.333h35.556"></path>
    </symbol>
      
    <!-- Alena  -->
    <symbol id="icon-brush-01" viewBox="0 0 32 32">
      <path stroke-linejoin="round" stroke-linecap="round" stroke-miterlimit="4" stroke-width="2.6667" d="M17.037 20l-5.037-5.037M2.667 29.333c2.667 0 6.144 0.456 7.967-1.367 0.845-0.845 1.367-2.011 1.367-3.3 0-2.577-2.089-4.667-4.667-4.667-1.289 0-2.455 0.522-3.3 1.367v0c-1.823 1.823 0 5.3-1.367 7.967z"></path>
      <path stroke-linejoin="round" stroke-linecap="round" stroke-miterlimit="4" stroke-width="2.6667" d="M10.667 21.333c-0.655-0.656-0.983-0.983-1.168-1.327-0.201-0.366-0.32-0.802-0.32-1.267 0-0.5 0.138-0.968 0.377-1.368l-0.007 0.012c0.197-0.336 0.537-0.651 1.217-1.28l13.157-12.183c0.525-0.495 1.234-0.799 2.014-0.799 1.623 0 2.939 1.316 2.939 2.939 0 0.78-0.304 1.489-0.8 2.015l0.001-0.001-12.183 13.159c-0.631 0.68-0.945 1.019-1.28 1.217-0.388 0.233-0.856 0.371-1.357 0.371-0.464 0-0.901-0.119-1.281-0.327l0.014 0.007c-0.343-0.185-0.671-0.513-1.325-1.168z"></path>
    </symbol>
    <symbol id="icon-hourglass-02" viewBox="0 0 32 32">
      <path stroke-linejoin="round" stroke-linecap="round" stroke-miterlimit="4" stroke-width="2.6667" d="M24.217 2.667h-16.435c-0.616 0-1.116 0.5-1.116 1.116v0c0 0 0 0 0 0 0 3.7 1.5 7.050 3.924 9.474l1.627 1.627c0.16 0.16 0.241 0.241 0.299 0.32 0.165 0.219 0.264 0.496 0.264 0.797s-0.099 0.577-0.267 0.8l0.002-0.003c-0.095 0.116-0.193 0.221-0.297 0.318l-0.002 0.002-1.627 1.625c-2.424 2.425-3.924 5.775-3.924 9.474 0 0 0 0 0 0v-0c0 0.616 0.5 1.116 1.116 1.116h16.435c0.616 0 1.116-0.5 1.116-1.116v0c0-0 0-0 0-0 0-3.7-1.5-7.050-3.924-9.474l-1.627-1.627c-0.16-0.16-0.241-0.241-0.299-0.32-0.165-0.219-0.264-0.496-0.264-0.797s0.099-0.577 0.267-0.8l-0.002 0.003c0.057-0.077 0.137-0.157 0.299-0.32l1.627-1.625c2.424-2.425 3.924-5.775 3.924-9.474 0-0 0-0 0-0v0c0-0.616-0.5-1.116-1.116-1.116v0z"></path>
    </symbol>
    <symbol id="icon-message-chat-circle" viewBox="0 0 32 32">
      <path stroke-linejoin="round" stroke-linecap="round" stroke-miterlimit="4" stroke-width="2.6667" d="M8.125 14.972c-0.080-0.49-0.125-1.056-0.125-1.631 0-0.003 0-0.005 0-0.008v0c0-5.891 4.807-10.667 10.737-10.667 5.929 0 10.736 4.776 10.736 10.667 0 1.331-0.245 2.605-0.693 3.78-0.093 0.243-0.14 0.365-0.16 0.46-0.019 0.077-0.031 0.166-0.032 0.258v0.001c-0.003 0.097 0.011 0.204 0.037 0.419l0.537 4.36c0.057 0.473 0.087 0.709 0.008 0.88-0.070 0.151-0.19 0.269-0.338 0.334l-0.004 0.002c-0.173 0.073-0.408 0.040-0.88-0.029l-4.245-0.623c-0.223-0.032-0.333-0.049-0.435-0.048-0.003-0-0.006-0-0.009-0-0.091 0-0.18 0.010-0.266 0.030l0.008-0.002c-0.099 0.021-0.225 0.068-0.477 0.163-1.128 0.432-2.433 0.683-3.796 0.683-0.575 0-1.14-0.045-1.692-0.13l0.061 0.008M10.176 29.333c3.953 0 7.157-3.283 7.157-7.333s-3.204-7.333-7.157-7.333c-3.953 0-7.159 3.283-7.159 7.333 0 0.813 0.129 1.597 0.369 2.329 0.1 0.309 0.151 0.464 0.168 0.569 0.017 0.111 0.020 0.173 0.013 0.284-0.007 0.107-0.033 0.227-0.087 0.468l-0.815 3.683 3.993-0.545c0.217-0.029 0.327-0.045 0.421-0.044 0.101 0 0.153 0.007 0.253 0.027 0.093 0.017 0.231 0.067 0.508 0.164 0.693 0.253 1.493 0.399 2.328 0.399 0.002 0 0.004 0 0.006 0h-0z"></path>
    </symbol>
    <symbol id="icon-user-01" viewBox="0 0 32 32">
      <path stroke-linejoin="round" stroke-linecap="round" stroke-miterlimit="4" stroke-width="2.6667" d="M26.667 28c0-1.861 0-2.791-0.229-3.548-0.529-1.708-1.848-3.026-3.518-3.546l-0.038-0.010c-0.757-0.229-1.687-0.229-3.548-0.229h-6.667c-1.861 0-2.791 0-3.548 0.229-1.708 0.529-3.027 1.848-3.546 3.518l-0.010 0.038c-0.229 0.757-0.229 1.687-0.229 3.548M16 16c3.314 0 6-2.686 6-6s-2.686-6-6-6v0c-3.314 0-6 2.686-6 6s2.686 6 6 6v0z"></path>
    </symbol>
  </defs>
</svg>
